<svg width="20" height="20" viewBox="0 0 20 20" fill="none" xmlns="http://www.w3.org/2000/svg">
<g clip-path="url(#clip0_12_77)">
<path d="M9.9471 8.82983e-06C10.2922 -0.00180688 10.5735 0.276635 10.5754 0.621754L10.6217 9.37501H19.375C19.7202 9.37501 20 9.65483 20 10C20 10.3452 19.7202 10.625 19.375 10.625H10.6283L10.6746 19.3718C10.6764 19.7168 10.3979 19.998 10.0529 20C9.70775 20.0018 9.4265 19.7234 9.42464 19.3783L9.37825 10.625H0.625C0.279822 10.625 0 10.3452 0 10C0 9.65483 0.279822 9.37501 0.625 9.37501H9.37174L9.32536 0.628264C9.32364 0.283273 9.60213 0.00198339 9.9471 8.82983e-06Z" fill="white"/>
</g>
<defs>
<clipPath id="clip0_12_77">
<rect width="20" height="20" fill="white"/>
</clipPath>
</defs>
</svg>
