<svg width="24" height="24" viewBox="0 0 24 24" fill="none" xmlns="http://www.w3.org/2000/svg">
<path d="M18.05 3.57751C18.05 3.19171 17.7854 2.92712 17.3996 2.92712H6.50018C6.11442 2.92712 5.84979 3.19171 5.84979 3.57751V21.0677C5.85748 21.0695 5.86577 21.0729 5.87518 21.0726C5.88851 21.0722 5.89901 21.0676 5.90839 21.0629L11.5685 17.0912C11.8271 16.9097 12.1723 16.9097 12.4308 17.0912L18.05 21.0336V3.57751ZM19.55 21.1049C19.55 21.6759 19.2522 22.16 18.7883 22.4056C18.3333 22.6465 17.7787 22.627 17.3137 22.348C17.2984 22.3389 17.2833 22.3289 17.2687 22.3187L11.9992 18.6205L6.73065 22.3187C6.71608 22.329 6.70099 22.3389 6.68573 22.348C6.20681 22.6354 5.64056 22.6329 5.19159 22.4203C4.72921 22.2013 4.34979 21.7336 4.34979 21.1049V3.57751C4.34979 2.36332 5.28595 1.42712 6.50018 1.42712H17.3996C18.6138 1.42712 19.55 2.36332 19.55 3.57751V21.1049Z" fill="#F7307C"/>
</svg>
