<svg width="24" height="24" viewBox="0 0 24 24" fill="none" xmlns="http://www.w3.org/2000/svg">
<g clip-path="url(#clip0_12_87)">
<path d="M12 7.5C12.4142 7.5 12.75 7.83579 12.75 8.25V11.6895L17.2178 16.1582C17.5102 16.4512 17.5096 16.926 17.2168 17.2188C16.9239 17.5112 16.449 17.5115 16.1562 17.2188L11.4697 12.5303C11.421 12.4815 11.3831 12.4263 11.3506 12.3691C11.3351 12.342 11.3187 12.3153 11.3066 12.2861C11.286 12.2361 11.2711 12.1844 11.2617 12.1318C11.2541 12.089 11.25 12.045 11.25 12V8.25C11.25 7.83579 11.5858 7.5 12 7.5Z" fill="#696969"/>
<path fill-rule="evenodd" clip-rule="evenodd" d="M12 0.75C14.9837 0.75 17.8453 1.93514 19.9551 4.04492C22.0649 6.15471 23.25 9.01631 23.25 12L23.2363 12.5576C23.0984 15.3383 21.9331 17.9771 19.9551 19.9551C17.8453 22.0649 14.9837 23.25 12 23.25C9.01631 23.25 6.15471 22.0649 4.04492 19.9551C1.93514 17.8453 0.75 14.9837 0.75 12C0.75 9.01631 1.93514 6.15471 4.04492 4.04492C6.15471 1.93514 9.01631 0.75 12 0.75ZM12 2.25C9.41414 2.25 6.93395 3.27699 5.10547 5.10547C3.27699 6.93395 2.25 9.41414 2.25 12C2.25 14.5859 3.27699 17.0661 5.10547 18.8945C6.93395 20.723 9.41414 21.75 12 21.75C14.5859 21.75 17.0661 20.723 18.8945 18.8945C20.723 17.0661 21.75 14.5859 21.75 12L21.7383 11.5166C21.6188 9.10673 20.6088 6.81969 18.8945 5.10547C17.0661 3.27699 14.5859 2.25 12 2.25Z" fill="#696969"/>
</g>
<defs>
<clipPath id="clip0_12_87">
<rect width="24" height="24" fill="white"/>
</clipPath>
</defs>
</svg>
